<?xml version="1.0" encoding="UTF-8" standalone="no"?>
<!-- Created with Inkscape (http://www.inkscape.org/) -->

<svg
   version="1.1"
   id="svg1"
   width="4002.6667"
   height="4002.6667"
   viewBox="0 0 4002.6667 4002.6667"
   sodipodi:docname="vecteezy_a-cassette-player-icon-on-a-white-background_54026010.eps"
   xmlns:inkscape="http://www.inkscape.org/namespaces/inkscape"
   xmlns:sodipodi="http://sodipodi.sourceforge.net/DTD/sodipodi-0.dtd"
   xmlns="http://www.w3.org/2000/svg"
   xmlns:svg="http://www.w3.org/2000/svg">
  <defs
     id="defs1" />
  <sodipodi:namedview
     id="namedview1"
     pagecolor="#ffffff"
     bordercolor="#000000"
     borderopacity="0.25"
     inkscape:showpageshadow="2"
     inkscape:pageopacity="0.0"
     inkscape:pagecheckerboard="0"
     inkscape:deskcolor="#d1d1d1">
    <inkscape:page
       x="0"
       y="0"
       inkscape:label="1"
       id="page1"
       width="4002.6667"
       height="4002.6667"
       margin="0"
       bleed="0" />
  </sodipodi:namedview>
  <g
     id="g1"
     inkscape:groupmode="layer"
     inkscape:label="1">
    <path
       id="path1"
       d="M 10,30010 H 30010 V 10 H 10 Z"
       style="fill:none;stroke:#000000;stroke-width:5.6693;stroke-linecap:butt;stroke-linejoin:miter;stroke-miterlimit:22.9256;stroke-dasharray:none;stroke-opacity:1"
       transform="matrix(0.13333333,0,0,-0.13333333,0,4002.6667)" />
    <path
       id="path2"
       d="m 16280,8236.16 c -141.5,0 -976.8,-14.73 -1044.2,10.38 -21.8,107.21 -7.4,862.94 -7.3,1033.46 0,52.83 2.4,68.94 61.5,68.94 h 990 c 36.5,0 23.2,2.18 54.8,-13.1 18.3,-133.54 6.4,-854.81 6.3,-1045.84 0,-53.58 -9.9,-53.84 -61.1,-53.84 z m -1064.3,1118.22 c -20.2,-92.67 -7.8,-696.49 -7.8,-874.38 0,-61.78 -27.1,-235.3 29.9,-261.2 30.7,-13.98 738.6,-6.48 872.2,-6.48 72.2,0 230.1,-16.11 252.5,33.36 9.8,179.09 1.2,382.55 1.2,564.32 0,43.66 14,515.44 -12.5,541.55 -27.8,27.44 -1079.5,18.23 -1135.5,2.83"
       style="fill:#1c1a22;fill-opacity:1;fill-rule:evenodd;stroke:none"
       transform="matrix(0.13333333,0,0,-0.13333333,0,4002.6667)" />
    <path
       id="path3"
       d="m 14780.1,8249.95 c -43.1,-22.65 -1070.9,-19.13 -1089,0.53 -12.2,13.18 -22.4,1017.47 -1.1,1084.9 48,19.58 1025.9,22.05 1087.8,2.65 19.7,-57.25 22.6,-1043.04 2.3,-1088.08 z m -1117.1,-8.07 c 54.9,-30.54 51.1,-23.33 126.9,-22.77 l 890.2,-0.02 c 54.3,-0.41 86.8,-9.3 118.2,23.12 20.5,30.05 18.4,996.05 6.7,1103.96 -85.1,40.5 -455.4,17.15 -575,17.15 -118.4,0 -483,19.74 -569.6,-16.94 l 2.6,-1104.5"
       style="fill:#1c1a22;fill-opacity:1;fill-rule:evenodd;stroke:none"
       transform="matrix(0.13333333,0,0,-0.13333333,0,4002.6667)" />
    <path
       id="path4"
       d="m 15443.4,14707.9 c -49.7,-24.8 -48.4,-10.5 -90.8,-50.5 -115.7,-109.1 -109,-125.9 -280.3,-157.9 -88,-16.5 -255.4,10.1 -312.2,60.3 l -59.4,50.9 c -74,73.8 -126.1,129.9 -256.9,87.2 -64.5,-21 -72.5,-20.3 -106.5,-64.6 l -17.4,-22.7 c -45.4,-65.3 -46.9,-177.9 29.6,-261 112.6,-122.4 199.9,-181.6 352.1,-238 232.6,-86.1 495.2,-80.3 705.5,40.6 153.2,88 128.2,61.7 247.6,183 l 53.3,55.2 c 6.4,11.4 5.8,11.5 8.6,29.2 9.1,58.7 12.9,141.9 -18,189.6 l -8.2,11.8 c -52.9,78.1 -166.1,127.2 -247,86.9"
       style="fill:#040304;fill-opacity:1;fill-rule:evenodd;stroke:none"
       transform="matrix(0.13333333,0,0,-0.13333333,0,4002.6667)" />
    <path
       id="path5"
       d="m 12780,14800 c 0,-102.6 -18.9,-384.8 25.7,-444.1 39.7,-52.6 112,-107.8 194.4,-106.1 47.5,0.9 127.2,37.6 163.3,76.3 81.5,87.3 56.6,324.6 56.6,473.9 0,93.2 -24.4,165.6 -85.9,213.4 l -102.7,46 c -14.7,4.6 -12.2,5 -32.2,5.9 -53.5,2.4 -126.9,-43.6 -157.2,-77.9 -48.3,-54.7 -62,-88.6 -62,-187.4"
       style="fill:#040304;fill-opacity:1;fill-rule:evenodd;stroke:none"
       transform="matrix(0.13333333,0,0,-0.13333333,0,4002.6667)" />
    <path
       id="path6"
       d="m 9647.32,20969.8 c -51.73,-11.2 -47.12,-75.6 -51.9,-124.5 -22.34,-228.6 26.24,-902.9 -5.24,-1145 -77.4,-10.6 -631.42,-12.5 -690.18,2.9 l -0.05,1336.8 c 0,270.4 -50.9,449 91.92,629.1 l 85.97,71.1 c 114.5,62.8 237.23,49.9 382.16,49.9 780.2,0 11274.8,12.7 11349.1,-5.3 l 172.8,-54.8 c -15.9,23.4 -2.2,7.1 -17,23 -26,28 -29,21.1 -62.3,30.5 -39.5,11.2 -46.8,21.8 -92.6,25.3 l -11520.03,1.1 c -178.11,-0.1 -257.45,-48 -338.32,-152.4 -90.77,-117.1 -70.82,-247.3 -70.82,-417.5 0,-203.8 -11.19,-2157.6 8.69,-2190.8 22.69,-38 174.48,-18.1 230.48,-18.1 160.62,0 327.96,-4.5 487.77,1.3 25.49,115.4 12.6,1244.1 12.6,1457.6 l 0.17,370.6 c 2.07,65 12.39,57.7 26.78,109.2"
       style="fill:#9c99a5;fill-opacity:1;fill-rule:evenodd;stroke:none"
       transform="matrix(0.13333333,0,0,-0.13333333,0,4002.6667)" />
    <path
       id="path7"
       d="m 20395.5,20925.2 c 15.7,-256.8 -15.3,-1747.7 16.7,-1892.8 203.6,-7.4 429.5,1.2 638.4,-1.8 107.4,-1.5 87.6,21 87,129.3 l 1.6,2150.1 c 0,109 17.3,228.6 -48.9,320 -32.8,45.4 3.3,14.2 -40.3,32.1 85.3,-246.7 70.9,-85.2 70.9,-442.1 0,-219.5 9,-1411.3 -3.6,-1523.6 l -687.5,0.4 c -15.4,121.2 -3.1,858.2 -3.4,1093.8 0,45.7 1.6,103.9 -30.9,134.6"
       style="fill:#9c99a5;fill-opacity:1;fill-rule:evenodd;stroke:none"
       transform="matrix(0.13333333,0,0,-0.13333333,0,4002.6667)" />
    <path
       id="path8"
       d="m 17811.7,9291.03 c -53.1,2.13 -29.6,22.11 -100.9,30.52 -40,4.71 -89.8,2.39 -130.8,2.34 l -776.8,-0.01 4.3,-1072.61 H 17871 c 14.9,131.61 2.4,631.27 3.1,828.74 0.7,203.1 -55.2,128.14 -62.4,211.02"
       style="fill:#4f4c5f;fill-opacity:1;fill-rule:evenodd;stroke:none"
       transform="matrix(0.13333333,0,0,-0.13333333,0,4002.6667)" />
    <path
       id="path9"
       d="m 13702,8252.49 1067,3.94 -2.1,1066.58 -1068.3,-1.19 3.4,-1069.33"
       style="fill:#4f4c5f;fill-opacity:1;fill-rule:evenodd;stroke:none"
       transform="matrix(0.13333333,0,0,-0.13333333,0,4002.6667)" />
    <path
       id="path10"
       d="m 9385.75,12990 c -0.32,188.3 6.68,103.6 27.26,233.7 38.79,245.4 183.63,371.8 217.85,433.4 18.46,33.3 92.99,104 124.07,128.7 l 232.19,146.5 c 40.28,19.8 63.98,17.5 99.08,32.7 111.4,48.1 203.1,50.3 333.8,49.8 285.3,-0.9 252.9,-45.5 330.6,-59.2 44.9,-8 145.9,-57.7 183.1,-81.3 208.2,-132 317.7,-244 416.5,-476.5 13.2,-31 12,-19.7 21.3,-48.6 l 31.3,-99.1 c 43.3,-189.7 41.1,-188.6 32.9,-400.9 l -36.1,-161.4 c -4.3,-12.8 -9.4,-17.3 -17.5,-42.2 l -54.4,-135.6 c -1.1,-2 -2.6,-4.5 -3.7,-6.5 -10.7,-18.5 -14.2,-22.7 -22.1,-37.8 l -108.1,-148.7 c -52.4,-45.4 -34.7,-39.9 -57,-64.4 0,-0.1 -27.3,-21.7 -38.1,-30 l -108.7,-83.3 c -22,-17.6 -13.5,-15.5 -37.4,-30.3 -162.2,-100.3 -350.9,-146.4 -542.6,-146.3 -151.5,0 -291.8,22.6 -431.54,88.7 -80.85,38.2 -232.69,142.5 -294.14,212.4 -65.45,74.5 -176.72,210.5 -206.89,306.9 -22.55,72 -10.65,1.6 -33.93,97.2 -16.52,67.8 -57.37,95.5 -57.75,322.1 z m -459.48,-60 c 11.51,-73.4 8.74,-188.3 36.26,-255.9 l 33.63,-105.4 c 6.82,-16.6 4.51,-15.5 9.38,-38 6.84,-31.7 11.69,-39.2 23.3,-69.1 l 170.89,-320.7 c 131.58,-186.3 253.11,-305 448.95,-415 18.07,-10.2 10.93,-7.1 32.02,-17.6 l 456.3,-180.8 c 249.3,-42.8 289.2,-19.8 513.3,-4.9 68.3,4.5 162.3,29.1 234.2,54.9 25.1,9.1 42.2,13.2 67.8,23.1 l 227.7,110.8 c 2,1.1 4.4,2.8 6.4,3.9 l 327.5,270.1 c 1.9,2.1 7.5,8.5 9.5,10.7 l 9.8,10.7 c 1.5,1.6 3.5,3.7 5,5.2 l 68.3,91.5 c 62.1,80.4 153.2,230.3 182.5,314.6 13.3,38 15.8,38.8 27.3,73.4 42.5,128 15.3,60.9 36.8,145.4 6.5,25.4 14.3,27.1 20.8,67.3 31.4,195.7 29.6,328.5 5.9,516.7 l -29.9,161.6 c -9.5,44.9 -9.3,45.2 -20.3,80.8 l -57.7,151 c -22.6,50 -45.1,122.5 -83.3,163.7 l -81,99.7 c -69.6,101.7 -181.3,209.5 -276.1,283.8 l -182.9,136.2 c -1.5,1.1 -3.7,3 -5.2,4.1 -1.5,1 -3.9,2.7 -5.5,3.6 -70.8,41.5 -215.7,94.3 -296.3,115.4 -165.7,43.4 -316.8,63.3 -491.7,60.1 -193.2,-3.5 -370.7,-54.1 -543.58,-120 -136.44,-52 -391.82,-236.5 -479.86,-347.2 -19.51,-24.5 -21.51,-32.3 -45.03,-55 -145.07,-139.6 -238,-347 -296.21,-534.6 -42.84,-138 -80.69,-355.4 -58.95,-494.1"
       style="fill:#68637d;fill-opacity:1;fill-rule:evenodd;stroke:none"
       transform="matrix(0.13333333,0,0,-0.13333333,0,4002.6667)" />
    <path
       id="path11"
       d="m 20622.1,12820 c -21.4,-72.4 -22.8,-127.5 -52.2,-200.7 -106.6,-265.8 -220.8,-315.1 -340.7,-460.5 l -37.2,-28.8 c -2,-1.1 -4.6,-2.7 -6.5,-3.9 l -130.7,-68.8 c -151.1,-74.7 -207.5,-58 -255.7,-76.8 -93.3,-36.3 -430.7,-17.7 -506.2,23.7 -39.1,21.4 -107.9,34.9 -143.4,56.6 -56.2,34.3 -254,169.8 -287.7,209.5 l -16.5,22.9 c -34.5,50.2 -30.3,29.5 -61.9,69.1 l -32.7,55.5 c -13.9,30.7 -27.9,51.8 -49.2,83.6 -16.9,25.2 -31.1,51.5 -44,83.3 -45.9,112.9 -71.3,172.5 -74.6,315.2 -1.9,80 -5.1,182 5.7,252.8 24.5,161.4 98.7,324.4 185.5,443.3 18.8,25.7 38,46.4 59.6,70.4 68.8,76.2 70.3,78.4 116.1,106.2 20.7,12.6 10.3,5.1 22.5,15.4 46.2,39.2 93.5,79.4 147.8,104.3 60.8,28 112.5,59 176.5,81.7 111.8,39.8 337,62.2 480.5,34.3 155.4,-30.3 149.8,-37.5 286.6,-93.6 109.4,-44.7 289.6,-192.8 354.2,-288.1 22.3,-32.9 29.6,-39.7 49.8,-69.1 16.6,-24.1 32.5,-56.2 46.8,-84.8 l 78.8,-180.1 c 39,-109.4 67.6,-341.2 28.8,-472.6 z M 19610,14481.5 c -125.5,0 -226.7,-10.3 -338.5,-34.7 -42.5,-9.3 -22.2,-12.3 -71.7,-20.1 -52.6,-8.1 -30.2,-0.1 -71.2,-17.7 l -251.7,-116.3 c -21.7,-16.4 -28.8,-26.4 -51.3,-38.1 -179.6,-92.7 -254.3,-197.9 -362.6,-328.3 -32.4,-39 -31.5,-26.5 -71.2,-90.2 -1.3,-2 -2.7,-4.6 -3.9,-6.5 l -205.9,-412.3 c -8.9,-33.4 -3.8,-64.4 -10.5,-94 -8.1,-35.5 -13.4,-12.3 -24.2,-62 -5.9,-26.9 -6.5,-58.2 -10.9,-88.9 -21.7,-150.9 -28.3,-363.9 19.9,-506.5 l 228.5,-509.2 c 47.8,-75.2 102.6,-143.5 164.9,-207 170.8,-174.1 252.9,-197.6 434.6,-305.4 139.1,-82.6 416.6,-130.6 615.8,-137.2 169.1,-5.6 266,37.9 321.5,44.8 57.3,7.2 200,43.7 254.2,71.1 17,8.6 13.6,10 30.8,16.7 55.8,21.6 86.1,24.3 129.8,54.1 113,77.1 218.8,141 318.7,241 133,133.2 223.2,266 306.4,432.6 13,26 17.6,37 26.5,63.8 l 84.2,288.4 c 26.3,267.3 33.5,243.1 -0.3,518.4 -6.8,54.8 -81.8,308.7 -108.6,363.8 -76.2,156.5 -20.1,71.2 -132.4,238.6 -18.4,27.5 -48,76.8 -79.9,101.7 l -28.4,20.8 c -16.6,15.5 -59,79.8 -152.9,166.5 -74.1,68.4 -153.4,120.6 -238.5,170.8 -13.7,8.1 -19.4,12.9 -30.2,20 -22.4,14.8 1,2 -30.4,17.5 l -165.2,64.4 c -231.4,73.2 -89.4,29.8 -309.9,71.9 -54.8,10.4 -128.2,7.5 -185.5,7.5"
       style="fill:#68637d;fill-opacity:1;fill-rule:evenodd;stroke:none"
       transform="matrix(0.13333333,0,0,-0.13333333,0,4002.6667)" />
    <path
       id="path12"
       d="m 19610,14481.5 c 57.3,0 130.7,2.9 185.5,-7.5 220.5,-42.1 78.5,1.3 309.9,-71.9 l 165.2,-64.4 c 31.4,-15.5 8,-2.7 30.4,-17.5 10.8,-7.1 16.5,-11.9 30.2,-20 85.1,-50.2 164.4,-102.4 238.5,-170.8 93.9,-86.7 136.3,-151 152.9,-166.5 l 28.4,-20.8 c 31.9,-24.9 61.5,-74.2 79.9,-101.7 112.3,-167.4 56.2,-82.1 132.4,-238.6 26.8,-55.1 101.8,-309 108.6,-363.8 33.8,-275.3 26.6,-251.1 0.3,-518.4 l -84.2,-288.4 c -8.9,-26.8 -13.5,-37.8 -26.5,-63.8 -83.2,-166.6 -173.4,-299.4 -306.4,-432.6 -99.9,-100 -205.7,-163.9 -318.7,-241 -43.7,-29.8 -74,-32.5 -129.8,-54.1 -17.2,-6.7 -13.8,-8.1 -30.8,-16.7 -54.2,-27.4 -196.9,-63.9 -254.2,-71.1 -55.5,-6.9 -152.4,-50.4 -321.5,-44.8 -199.2,6.6 -476.7,54.6 -615.8,137.2 -181.7,107.8 -263.8,131.3 -434.6,305.4 -62.3,63.5 -117.1,131.8 -164.9,207 l -228.5,509.2 c -48.2,142.6 -41.6,355.6 -19.9,506.5 4.4,30.7 5,62 10.9,88.9 10.8,49.7 16.1,26.5 24.2,62 6.7,29.6 1.6,60.6 10.5,94 l 205.9,412.3 c 1.2,1.9 2.6,4.5 3.9,6.5 39.7,63.7 38.8,51.2 71.2,90.2 108.3,130.4 183,235.6 362.6,328.3 22.5,11.7 29.6,21.7 51.3,38.1 l 251.7,116.3 c 41,17.6 18.6,9.6 71.2,17.7 49.5,7.8 29.2,10.8 71.7,20.1 111.8,24.4 213,34.7 338.5,34.7 z M 17680.9,12880 c 24.5,-175.2 39.6,-338.2 101.9,-507.6 l 69,-170.4 c 10.9,-28.9 22.1,-57.6 36.6,-84.8 57.7,-108.7 120.4,-206.4 192.2,-296.6 60.1,-75.5 126.5,-161.4 201.3,-219.6 15.2,-11.8 26.2,-16.1 36.2,-23.8 l 66.3,-64.6 c 25.3,-18.5 42.5,-31.8 66,-51.7 6,-5.1 10.6,-8.7 17.5,-13.5 l 200,-130.9 c 104.1,-60.2 210.5,-109.4 329.7,-149.5 94.2,-31.7 173.3,-63 276,-80.1 190.7,-31.7 494,-39.1 670.7,8 63.8,17 126.2,29.1 199.5,43.4 73.4,14.2 110.4,46.3 177,61.8 29.8,6.9 21.7,2.7 47.4,13.7 2.2,1 4.7,2.4 6.8,3.3 l 194,97.2 c 78.8,31.8 141.7,97.4 215.7,142.5 44.9,27.4 86,77.4 124,114.2 l 237.4,253 c 81,89.6 239.8,383.9 271.8,475.2 l 11.9,49.4 c 9,31.1 5.1,14.4 8.8,22.6 81.8,180.3 103.8,545.4 100.1,739.2 -1.2,64.3 -41.6,304.2 -65.3,361.4 l -44.2,134.1 c -12.8,40.1 -13.5,62.3 -26.6,97.2 l -121.4,248.6 c -48.5,77.7 -87,145.7 -144.4,215.2 l -240.1,279.4 -143,106.1 c -1.8,1.2 -4.2,2.9 -6,4.1 l -41.3,29.6 c -25.5,18.9 -44.1,27.5 -74.8,44.8 -144.2,81.7 -195.2,113.2 -359.3,180.1 l -426.5,109.6 c -102.1,16 -251.2,4.2 -355.8,3.4 -141.5,-1.1 -137.2,-21.8 -219.4,-28.9 -58.2,-4.9 -55.1,4.5 -101.6,-15.6 l -376.4,-133 c -9.3,-5.1 -11.9,-6.2 -19.7,-10.5 -18.2,-10 -15.5,-9 -39.2,-20.8 l -152.6,-87.3 c -99.2,-59 -176.2,-145 -268.5,-210.3 l -123.7,-116.4 c -137.2,-176.8 -155.6,-198.2 -263.3,-377.7 l -31.9,-58.7 c -67.9,-138.7 -136.5,-279.2 -161.1,-438.7 -7.8,-50.2 -16.4,-60.1 -22.9,-96.7 -18.3,-102.8 -44.4,-337.6 -28.8,-449.4"
       style="fill:#020202;fill-opacity:1;fill-rule:evenodd;stroke:none"
       transform="matrix(0.13333333,0,0,-0.13333333,0,4002.6667)" />
    <path
       id="path13"
       d="m 8926.27,12930 c -21.74,138.7 16.11,356.1 58.95,494.1 58.21,187.6 151.14,395 296.21,534.6 23.52,22.7 25.52,30.5 45.03,55 88.04,110.7 343.42,295.2 479.86,347.2 172.88,65.9 350.38,116.5 543.58,120 174.9,3.2 326,-16.7 491.7,-60.1 80.6,-21.1 225.5,-73.9 296.3,-115.4 1.6,-0.9 4,-2.6 5.5,-3.6 1.5,-1.1 3.7,-3 5.2,-4.1 l 182.9,-136.2 c 94.8,-74.3 206.5,-182.1 276.1,-283.8 l 81,-99.7 c 38.2,-41.2 60.7,-113.7 83.3,-163.7 l 57.7,-151 c 11,-35.6 10.8,-35.9 20.3,-80.8 l 29.9,-161.6 c 23.7,-188.2 25.5,-321 -5.9,-516.7 -6.5,-40.2 -14.3,-41.9 -20.8,-67.3 -21.5,-84.5 5.7,-17.4 -36.8,-145.4 -11.5,-34.6 -14,-35.4 -27.3,-73.4 -29.3,-84.3 -120.4,-234.2 -182.5,-314.6 l -68.3,-91.5 c -1.5,-1.5 -3.5,-3.6 -5,-5.2 l -9.8,-10.7 c -2,-2.2 -7.6,-8.6 -9.5,-10.7 l -327.5,-270.1 c -2,-1.1 -4.4,-2.8 -6.4,-3.9 l -227.7,-110.8 c -25.6,-9.9 -42.7,-14 -67.8,-23.1 -71.9,-25.8 -165.9,-50.4 -234.2,-54.9 -224.1,-14.9 -264,-37.9 -513.3,4.9 l -456.3,180.8 c -21.09,10.5 -13.95,7.4 -32.02,17.6 -195.84,110 -317.37,228.7 -448.95,415 l -170.89,320.7 c -11.61,29.9 -16.46,37.4 -23.3,69.1 -4.87,22.5 -2.56,21.4 -9.38,38 l -33.63,105.4 c -27.52,67.6 -24.75,182.5 -36.26,255.9 z m -250.71,919.9 c -7.7,-35.8 -18.03,-68.2 -33.87,-102.4 -36.46,-78.9 -94.51,-182.9 -106.21,-268.4 -22.02,-161.1 -91.01,-524.1 -44.71,-688.7 10.17,-36.1 9.99,-63.1 14.7,-106 l 44.88,-204 c 20.45,-51.9 -4.69,-29.2 35.11,-125.6 17.91,-43.4 -1.5,-24 28.49,-70.8 18.68,-29.2 34.59,-52.8 40.92,-98.7 24.81,-10.9 23.43,-31.3 37.29,-61.9 l 95.39,-165.9 c 4.58,-6.8 14.98,-20.6 20.63,-28.8 31.35,-45 54.12,-84 84.35,-126.6 48.86,-68.9 253.39,-273.3 312.46,-316.7 l 248.85,-170.5 c 148.3,-96.5 460.47,-191.4 618.96,-222.1 212.7,-41.3 374.9,-37.7 578.9,-13 152.5,18.4 319.9,53.3 459.3,119.1 l 27.1,13.2 c 79.2,41.4 195.9,83.8 287.7,142.2 213.6,135.8 291.6,216.5 450.3,389.4 39.1,42.7 61.4,76.3 93,117.9 l 166.2,250 60.7,152.4 c 79.9,172.3 137,500.2 138.9,696 l -27.3,398.5 c -30,171.6 -142.6,463 -229.5,610.7 l -42,67 c -83.6,121.7 -198.2,269.4 -309.1,370.6 -0.4,0.4 -15.7,14.3 -15.9,14.5 l -10.3,9.8 c -40.3,38 -77.3,57.2 -118.6,91.3 -111.8,92.3 -159.1,115.9 -289.4,189.7 -81.3,46.1 -306.8,131.4 -409,151.5 -41.3,8.1 -63.2,16.6 -87.2,22.3 -30.3,7.2 -62.7,5.2 -93.7,9.2 -66.7,8.7 -96.3,23.6 -182.8,25.1 -91.5,1.6 -425.4,-7.5 -495.7,-35.7 l -24,-13.1 c -30.49,-12.7 -69.61,-0.2 -216.36,-55.4 -218.06,-81.9 -363.48,-154.9 -544.99,-294.8 l -319.17,-311.4 c -58.86,-71.5 -86.74,-101.2 -137.06,-182.5 l -107.26,-177.4"
       style="fill:#020202;fill-opacity:1;fill-rule:evenodd;stroke:none"
       transform="matrix(0.13333333,0,0,-0.13333333,0,4002.6667)" />
    <path
       id="path14"
       d="m 16805.1,14800 c 0,-89.2 -11.5,-324.4 14.6,-398.8 22.4,-64.2 20.6,-37.1 52,-69.5 37.2,-38.4 -9.9,-30.7 56,-55.5 96,-36.1 206.6,-19.4 263.2,52.3 45,56.9 49,85.5 49,181.5 0,52.5 5.5,357 -6.3,395.6 -67.2,218.3 -428.5,207.6 -428.5,-105.6"
       style="fill:#020202;fill-opacity:1;fill-rule:evenodd;stroke:none"
       transform="matrix(0.13333333,0,0,-0.13333333,0,4002.6667)" />
    <path
       id="path15"
       d="m 11649.9,16916.6 c 605.4,9 1222.5,-0.5 1830.1,-0.5 719.9,0 5482.9,-16.6 5520,10.8 26.8,26.1 21.9,14.8 24.3,62.2 l -5,611.3 c -15.3,9.6 -7.3,5.1 -27.3,7.1 -287.6,-16.9 -628,-1.2 -922,-1.2 -920,0 -1840,0 -2760,0 -149.2,0 -3506.7,12 -3662.6,-6.3 -10.9,-51.8 -8.6,-624.6 2.5,-683.4"
       style="fill:#fe9db0;fill-opacity:1;fill-rule:evenodd;stroke:none"
       transform="matrix(0.13333333,0,0,-0.13333333,0,4002.6667)" />
    <path
       id="path16"
       d="m 19024.9,12990 c 0.1,-151.3 58.8,-316.7 168.5,-416.4 122.6,-111.5 240.9,-171.6 416.6,-171.6 175.6,0 291.3,54.4 416.5,171.6 53.8,50.4 94.2,101 116.8,173 l 38.1,112.8 c 15.6,47.1 13.4,83.6 13.3,140.6 -0.3,122.5 -11.4,76.5 -23.7,116.8 -14.4,46.7 11.5,27.2 -27.2,115.3 -98.7,225.1 -291,343.1 -543.8,343.1 -104.1,0 -246,-36.9 -328.4,-96.8 -157.9,-114.7 -246.9,-285.6 -246.7,-488.4"
       style="fill:#fe9db0;fill-opacity:1;fill-rule:evenodd;stroke:none"
       transform="matrix(0.13333333,0,0,-0.13333333,0,4002.6667)" />
    <path
       id="path17"
       d="m 9855.71,13182.3 c -0.37,-100.3 -62.57,-175.6 9.58,-389.4 30.82,-91.3 121.52,-208.3 185.31,-252.9 17.6,-12.4 16.2,-8.6 32.2,-18.6 92.3,-57.9 138.1,-90.2 278.8,-108.2 148.5,-19 312.7,72.8 360.9,86.4 46.4,5 154.3,120.2 179.4,168.9 49.1,95.5 92.6,126 96.4,271.3 4.4,167.6 -20.7,285.6 -121.8,417 -80,104.1 -174.8,152.4 -290.5,208 -16.6,8 -2.7,6.7 -35.8,10.4 -52.2,5.9 -127.2,6.3 -180.3,4.6 -163.7,-5 -262.8,-55.7 -378.96,-171.1 -40.62,-40.4 -130.43,-163.9 -135.23,-226.4"
       style="fill:#fe9db0;fill-opacity:1;fill-rule:evenodd;stroke:none"
       transform="matrix(0.13333333,0,0,-0.13333333,0,4002.6667)" />
    <path
       id="path18"
       d="m 12620.1,19756.2 -17.2,-16.3 c -33.4,-119 -21.9,-208.5 -21.9,-349.9 0,-95.8 -14.3,-270.6 9.9,-349.3 l 856.8,0.1 c 16.6,59.8 20.4,695.7 -1.4,724.6 -21.8,22.8 -163.2,10.9 -196.3,10.9 l -530.2,0.2 c -51.6,-2.5 -42.9,-13.4 -99.7,-20.3"
       style="fill:#fe9db0;fill-opacity:1;fill-rule:evenodd;stroke:none"
       transform="matrix(0.13333333,0,0,-0.13333333,0,4002.6667)" />
    <path
       id="path19"
       d="m 16101.4,19048.4 c 17,48.4 8.3,428.8 8.3,531.6 0,30.2 -0.1,60.2 0.4,90.4 1.8,133.3 2.5,98.7 -430.1,98.7 -79.6,0 -378.3,9.5 -432.5,-6.3 -14.4,-68.8 -4.8,-467.7 -5.4,-592.8 -0.8,-160.2 -66.6,-125.6 467.9,-125.6 104.3,0 297.7,-11 391.4,4"
       style="fill:#fe9db0;fill-opacity:1;fill-rule:evenodd;stroke:none"
       transform="matrix(0.13333333,0,0,-0.13333333,0,4002.6667)" />
    <path
       id="path20"
       d="m 15807.9,12393.6 c 145.6,45.6 333.2,-37.3 420.8,-176.2 15.3,-24.2 27,-40.6 34.8,-67.5 40.5,-140 44.3,-131.6 12.3,-263.4 -27.1,-112 -64.9,-159.8 -167.2,-234.5 -108.4,-79.1 -306.6,-91.4 -439,-2.5 -222.5,149.5 -246.6,436.8 -106.3,587.5 95.1,102.2 119.6,117.4 244.6,156.6 z m -1759.7,-0.3 c 170.9,43.2 333.3,-40 426.6,-178.2 67.1,-99.5 88.6,-223.9 50.2,-330.5 -162.4,-450.6 -675.2,-328.1 -772.9,-42.6 -10,29.4 -19,50.9 -25.1,74.2 -50.5,194.3 90.1,418.8 321.2,477.1 z m -763.8,646.7 v -2100 c 0,-60.7 -2.6,-107 125.6,-107 h 3200 c 136.8,0 125.6,56.1 125.6,117 v 2090 c 0,49.1 7.1,64.1 -23.3,92.6 -22.6,21.1 -59.1,21.6 -102.3,21.6 h -3210 c -118.9,0 -115.6,-39.3 -115.6,-114.2"
       style="fill:#fc5f7e;fill-opacity:1;fill-rule:evenodd;stroke:none"
       transform="matrix(0.13333333,0,0,-0.13333333,0,4002.6667)" />
    <path
       id="path21"
       d="m 17376.9,19754.5 -802.6,0.5 -2.1,-698 h 856.6 l 3.2,563.4 c -0.3,38.4 2.3,50.1 -13.4,79.3 l -41.7,54.8"
       style="fill:#fc5f7e;fill-opacity:1;fill-rule:evenodd;stroke:none"
       transform="matrix(0.13333333,0,0,-0.13333333,0,4002.6667)" />
    <path
       id="path22"
       d="m 13931.9,19065.5 c 75.9,-12.5 788.7,-13.7 830.8,3 l -2.7,676 c -33.8,13.8 -757.9,14 -831.7,2.8 l 3.6,-681.8"
       style="fill:#fc5f7e;fill-opacity:1;fill-rule:evenodd;stroke:none"
       transform="matrix(0.13333333,0,0,-0.13333333,0,4002.6667)" />
    <path
       id="path23"
       d="m 9581.74,17611.8 8.21,-1.5 -669.17,1 c -10.87,-88.7 -3.9,-387.5 -3.96,-511.3 -0.1,-219.2 -31.5,-167.5 333.18,-167.5 101.55,0 225.2,-6.3 324.11,2.8 25.43,60.3 18.17,580.1 7.63,676.5"
       style="fill:#fc5f7e;fill-opacity:1;fill-rule:evenodd;stroke:none"
       transform="matrix(0.13333333,0,0,-0.13333333,0,4002.6667)" />
    <path
       id="path24"
       d="m 20431.5,17609.6 8.4,1.3 -3.5,-660.8 c 60,-12.6 597.9,-12 663.9,-1.5 l 1.3,657.1 -670.1,3.9"
       style="fill:#fc5f7e;fill-opacity:1;fill-rule:evenodd;stroke:none"
       transform="matrix(0.13333333,0,0,-0.13333333,0,4002.6667)" />
    <path
       id="path25"
       d="m 19445.1,16850 c -16.6,-30.3 4.1,-43 -45.7,-118.8 -62,-94.6 -145,-194.8 -263,-228 -47,-13.1 -71.7,-28.7 -125.7,-29.8 -570.8,-11.2 -1236.1,0.1 -1810.7,0.1 h -5890 c -340.3,0 -395,-24.7 -605.9,132.2 -52.9,39.4 -78.6,68.2 -104.7,140.7 -55,152.9 -46.9,68.2 -46.8,283.6 0.1,241.1 -48.2,614.6 51.6,766.4 39.7,60.3 97.6,131.4 157.3,164.2 l 51,29.2 c 14.4,7.3 17.7,6.7 28.5,12.1 l 158,51.9 c 86.5,11.9 6548.3,1.3 7051,1.3 96.7,0 926.2,7 979.9,-2.9 32.5,-6 17.7,-8.3 59.6,-18 l 58.6,-14.5 c 2.3,-1.1 4.7,-2.6 6.8,-3.7 l 17.5,-11.3 c 1.7,-0.9 4.1,-2.3 6,-3.1 11.6,-5 16.8,-4.4 30.4,-8.6 96.6,-30.5 151.1,-135.2 186.7,-187.8 l 63.7,-146.7 3.7,-739.3 c -2.7,-70 -9.2,-53.5 -17.8,-69.2 z m 2111.5,40 c -67.6,-219.8 -97.3,-244.1 -243.8,-343.2 -78,-52.7 -19.1,-24.1 -97.2,-50.1 -27.4,-9.1 -21.2,-9.8 -34.6,-14.2 -33.9,-11.1 -712.7,-14.2 -778.7,-5.3 -88.6,11.8 -135.5,42.2 -204.6,73.6 -35.4,16.1 -19,4.8 -41.2,33.8 -9.6,12.7 -4.7,7.3 -13.7,17.5 -202,226.3 -154.8,289.2 -154.8,637.9 0,143.5 -26.1,440.5 34,529.6 l 141.4,187.3 c 88.9,87.6 147.9,50.4 215.1,85 58.1,29.8 756.9,13.9 779.9,8.8 207.4,-45.3 201.4,-80.6 304.8,-186.9 48.7,-50.1 83.1,-132.2 97.8,-198.7 15.5,-70.1 11.2,-724.5 -4.4,-775.1 z M 9649.95,18051.8 c 43.65,-23 203.33,-45 294.83,-188 121.82,-190.3 87.22,-268.1 87.22,-563.8 0,-150.5 22.2,-412.2 -37.19,-534.3 -71.1,-146.4 -143.45,-197.3 -294.86,-262.3 -33.31,-41.3 -61.56,-37.3 -129.88,-39.3 -134.81,-4 -658.74,-12.2 -742.02,12.7 -150.4,45.1 -153.23,80 -213.01,86.8 l -0.12,-608.2 H 22058.8 c 0,401.5 0,803.1 0,1204.6 0,260.3 35.5,677.8 -66.9,913.2 -0.2,0.4 -21.5,39.9 -25.1,46.5 -13.7,25 -42.4,65.1 -50,105.8 -3.2,31 -70.4,100.5 -95.9,125.6 l -120.5,108 c -65.6,37.1 -263.9,131.7 -326.9,117.4 -64.4,-14 -11043.2,-2.2 -12043.5,-2.2 -318.42,0 -321.98,51.4 -480.99,-133.4 l -124.51,-195.4 c -41.07,-60.3 -36.89,-103.6 -56.6,-145.1 -19.81,-41.8 -15.04,-41.8 -16.49,-97.4 49.59,8 60.69,23.6 112.11,39.9 150.46,47.5 176.82,27 366.48,27 56.17,0 471.63,18.3 519.95,-18.1"
       style="fill:#69637d;fill-opacity:1;fill-rule:evenodd;stroke:none"
       transform="matrix(0.13333333,0,0,-0.13333333,0,4002.6667)" />
    <path
       id="path26"
       d="m 15249.3,8254.34 1070.8,-3.77 2.8,1072.77 -1071.7,1.21 -1.9,-1070.21"
       style="fill:#69637d;fill-opacity:1;fill-rule:evenodd;stroke:none"
       transform="matrix(0.13333333,0,0,-0.13333333,0,4002.6667)" />
    <path
       id="path27"
       d="m 12207.7,9291.98 c -9.3,-46.93 -1.3,-9.06 -25,-46.6 -2.2,-3.54 -24.4,-41.13 -24.7,-41.88 -23.3,-49.44 -13.4,-904.68 -8.9,-944.46 47.9,-24.4 931.7,-9.23 1068.4,-9.23 l -1.9,1075.23 -785.6,0.02 c -243,0.36 -145.5,-26.01 -222.3,-33.08"
       style="fill:#69637d;fill-opacity:1;fill-rule:evenodd;stroke:none"
       transform="matrix(0.13333333,0,0,-0.13333333,0,4002.6667)" />
    <path
       id="path28"
       d="m 21373.5,18576.5 c 63,14.3 261.3,-80.3 326.9,-117.4 l 120.5,-108 c 25.5,-25.1 92.7,-94.6 95.9,-125.6 24,-13.4 5.4,0.6 22,-15.7 60.7,-60 126.2,-263.1 132.6,-349.4 12.1,-160.9 2.7,-355.9 2.7,-520.4 l 0.1,-1290 c 1.6,-149.4 -1.7,-113.5 -154.2,-113.4 H 8980 c -86.65,0 -173.36,0.3 -260.01,-0.1 -96.74,-0.4 -140.65,14.9 -239.95,14.7 -175.75,-0.5 -351.54,-0.1 -527.29,-0.1 l -0.03,1758.9 c -0.01,121.3 11.58,214.2 50.05,324.1 l 57.65,134 c 34.35,61.3 57.87,109 106.76,146.5 l 21.34,17.5 c 1.41,1.3 3.54,3.4 4.9,4.8 1.35,1.3 3.44,3.5 4.74,4.9 69.19,74.6 55.2,83.7 213.73,166.3 l 117.71,38.6 c 12.17,2.4 17.2,1.8 28.46,3.3 25.35,3.3 32.18,5 50.54,14.1 66.79,32.7 134.13,22.2 231.41,22 162.53,-0.2 328.48,9.7 499.99,9.7 h 11780 c 123.2,0 215.9,9.4 253.5,-19.3 z m 1136.5,-620.4 v -3336.6 c -0.4,-35.6 -0.8,-56.2 -1.3,-58.2 L 22430,14460 c -1.8,-1.2 -4.3,-2.7 -6.1,-3.9 -1.8,-1.2 -4.4,-2.6 -6.3,-3.7 l -19.8,-10.3 c -6.4,-3.3 -25.6,-13.5 -26.4,-13.8 -25.2,-10.7 -43.8,-9.9 -61.4,-12.6 -52.2,13.4 -60,6.3 -108,27.5 -29.4,13 -20,6.6 -44.5,25.7 -15.9,12.5 -21.7,19.7 -32.5,21.1 l -46.6,107.8 c -18.8,75.6 10,733.8 -10.5,900.8 -113.8,17.4 -7041.8,3.9 -7057.9,3.9 -38.5,0 -6925.37,12 -7056.49,-5.4 -19.9,-185.3 -3.83,-462.1 -3.83,-657.1 v -3910 c 0,-108.2 11.7,-218.3 -33.61,-296.3 -18.21,-31.3 -54.02,-59.1 -84.98,-75.2 -16.21,-8.5 -40.38,-19.5 -55.46,-23.7 -31.47,-8.7 -36.63,1.1 -61.91,-14.8 -48.6,0 -46.4,0.5 -82.98,20.8 l -12.81,7.1 c -39.5,22.3 -66.93,47.5 -91.32,88.7 l -16.61,59.7 v 78.7 c 7.91,2248.3 0,4496.7 0,6745 v 453 l 107,340 c 1.26,2.8 4.52,11.4 5.82,14.2 l 6.53,13.4 c 62.69,118 138.88,232.6 233.08,327 90.28,90.5 213.1,182 350.03,249.9 l 103.09,46.9 c 45.56,17.7 60.88,34.4 114.45,35.6 0,221.7 -14.84,2291.4 7.27,2452.7 17.61,128.6 -18.07,127.6 54.83,295.2 33.47,77 76.99,152.4 130.76,219.2 l 116.94,113.1 c 74.52,56.4 155.88,100.7 245.7,134.3 25.59,9.6 35.99,9.8 62.04,18 72.16,22.6 189.69,27.9 282.43,27.5 H 15010 c 1900,0 3800.2,-7.5 5700.2,0.2 299.7,1.3 548.1,-99.2 725.7,-344.3 44.5,-61.6 83.3,-130.3 108.3,-201.7 l 33.6,-116.4 c 28.4,-167 12.2,-2370.5 12.2,-2597.8 50.5,-1.1 88.2,-24.6 135.3,-44.7 124.2,-53.2 161.4,-78.1 235.3,-124.7 l 23.9,-16.1 c 1.6,-1.3 3.9,-3.1 5.6,-4.4 l 210.8,-189.2 c 1.4,-1.5 3.3,-3.8 4.6,-5.4 L 22406,18306 c 0.9,-2.2 2.1,-4.8 3.1,-6.9 l 73.8,-196.2 c 10.5,-31.6 3.7,-44.7 13,-77 11.4,-39.2 4.4,9.3 12.7,-37.3 0.5,-2.8 1,-14.2 1.4,-32.5 z m -5061.8,1065.2 c -50.7,-13.7 -763.6,-14 -858.8,-6.9 -76.2,5.6 -56.3,82.9 -56.2,155.6 0.2,73.3 0,146.7 0,220 0,86.3 -19.3,344.3 23.9,401.8 76.3,10.9 782.4,10.9 820.5,-5.1 54.3,-22.7 80.2,-59.8 82.7,-136.4 3.7,-111.4 6.9,-574.4 -12.1,-629 z M 15213,19710 c 0,71.1 2.6,80.8 77,80.8 197.8,0.2 667.7,11.8 834.9,-7 9.4,-158.4 14.9,-617.5 -3.5,-757.7 -134.2,-11.1 -771.8,-12.6 -899,-0.6 -19.9,158.6 -9.4,506.6 -9.4,684.5 z m -1322.9,0 c 0,83.7 1.6,80.4 79.9,80.4 h 760 c 74,0 73.8,-7.4 73.8,-80.4 v -610 c 0,-69 -4,-79.3 -72.5,-79.3 H 13970 c -73.5,0 -79.9,-1.1 -79.9,79.3 z m -1287.2,29.9 17.2,16.3 c 9.1,18.6 -0.1,24.7 39.9,37.5 6.4,2 41.2,4.2 49.5,4.5 36.1,1 74.2,0 110.5,0 725.9,-0.5 665.6,63.8 665.6,-198.2 0,-138 20.9,-520.1 -25.6,-582.1 -84.8,-6.4 -863.1,-14.5 -887.1,12.1 -25.8,28.5 -12.5,452.2 -12.9,550 -0.4,101.8 -10.6,143.8 42.9,159.9 z M 12130,19060 c -31.3,-2.6 -35.5,-10 -70,-10 h -1990 v 1580 h 9880 v -1580 h -1990 c -34.5,0 -38.7,7.4 -70,10 0,89.1 17.5,679.5 -14.9,755.1 -35.2,82.2 1.5,34.7 -65.7,144.3 l -120.7,139.3 c -68.6,53.5 -123.6,84.5 -204.2,105.8 -36.9,9.8 -52.1,25.5 -84.5,25.5 h -4780 c -34.2,0 -40.8,-13.1 -76.5,-23.5 -14.8,-4.2 -25.9,-5.2 -40.4,-9.6 -16.2,-5 -20.2,-7.5 -35.5,-14.5 l -91.2,-48.8 c -1.8,-1.1 -4.3,-2.7 -6.1,-3.9 l -136.6,-133.4 -85.6,-174.4 c -2.6,-6.3 -12,-26 -14.3,-35.7 z m -2482.68,1909.8 c -14.39,-51.5 -24.71,-44.2 -26.78,-109.2 l -0.17,-370.6 c 0,-213.5 12.89,-1342.2 -12.6,-1457.6 -159.81,-5.8 -327.15,-1.3 -487.77,-1.3 -56,0 -207.79,-19.9 -230.48,18.1 -19.88,33.2 -8.69,1987 -8.69,2190.8 0,170.2 -19.95,300.4 70.82,417.5 80.87,104.4 160.21,152.3 338.32,152.4 l 11520.03,-1.1 c 45.8,-3.5 53.1,-14.1 92.6,-25.3 33.3,-9.4 36.3,-2.5 62.3,-30.5 14.8,-15.9 1.1,0.4 17,-23 30.8,-20.3 62.4,-37.1 68.1,-67.9 43.6,-17.9 7.5,13.3 40.3,-32.1 66.2,-91.4 48.9,-211 48.9,-320 l -1.6,-2150.1 c 0.6,-108.3 20.4,-130.8 -87,-129.3 -208.9,3 -434.8,-5.6 -638.4,1.8 -32,145.1 -1,1636 -16.7,1892.8 -21.2,19.6 -20,58.7 -72.1,98.3 -27.1,20.5 -82.7,45 -122.7,48.9 l -1030.7,0.6 c -3092.1,0 -6199.9,-11.3 -9290.06,0.2 -83.93,0.3 -82.08,-2.5 -143.4,-27.8 -43.81,-18.1 -70.08,-42.7 -89.22,-75.6"
       style="fill:#010001;fill-opacity:1;fill-rule:evenodd;stroke:none"
       transform="matrix(0.13333333,0,0,-0.13333333,0,4002.6667)" />
    <path
       id="path29"
       d="m 17777.9,9327.66 c 11.7,-5.53 7.8,-1.75 18.1,-12.5 14.6,-15.42 8.7,-9.37 15.7,-24.13 29.1,-7.47 31.6,-13.68 49.2,-40.53 15.1,-23.08 21.2,-33.76 22.9,-63.47 53.7,-13.49 30.9,-152.77 30.9,-207.03 0,-169.02 10.1,-635.4 -3.1,-742.79 -58.8,-45.38 -471,-25.49 -571.6,-25.49 -104.9,0 -507.9,-19.14 -574.5,22.23 -18.7,88.51 -14.4,1080.99 5.4,1114.52 28.9,34.3 440.8,16.2 509.1,16.2 l 390.6,-0.01 c 63.6,-0.45 73.4,1.01 107.3,-37 z M 22510,13832 V 8924.12 c -0.3,-147 -6.1,-67.97 -19.5,-144.63 -14.7,-84.34 -57.3,-198.2 -94.8,-275.2 -78.1,-160.39 -100.3,-167.52 -187.2,-282.82 -81.2,-107.7 -268.7,-247 -393.4,-306.53 l -28,-12.04 c -2.1,-0.98 -4.7,-2.26 -6.8,-3.25 -60,-28.54 -140.4,-60.58 -206,-73.91 -6.3,-1.27 -33.8,-6.88 -40.9,-9.12 -88.5,-27.98 -26.7,-9.08 -110.5,-19.51 -215.1,-26.79 -487.7,-17.11 -732.9,-17.11 h -9720 c -254,0 -2083.23,-14.14 -2242.75,7.26 -57.47,7.7 -122.38,8.33 -177.31,12.68 -60.69,4.8 -249.47,71.12 -317.13,102.88 -10.92,5.13 -16.26,6.56 -27.87,12.12 -26.53,12.7 -15.92,8.83 -31.78,18.22 -7.61,4.5 -18.75,10.42 -25.78,14.23 -43.98,23.85 -78.29,45.48 -115.98,74.01 -55.18,41.77 -164.99,129.74 -202.89,177.11 -28.36,35.43 -52.65,63.62 -79.97,100.03 -69.63,92.8 -66.16,99.1 -111.63,178.37 l -120.1,339.9 c -2.59,7.99 -4.93,79.08 -6.81,181.9 v 932.72 l 71.28,117.27 c 14.8,12.1 15.13,11.6 29.49,20.5 l 25.32,14.6 c 24.08,11.5 45.41,15.6 76.45,16.2 31.21,-20.1 90.42,-13.1 139.19,-48.5 50.9,-36.8 52.55,-40.7 77.88,-103.19 60.2,-148.57 -25.8,-771.93 40.62,-1046.11 l 41.46,-148.91 c 34.42,-104.09 143.13,-244.91 220.84,-320.75 123.36,-120.4 332.14,-195.06 517.14,-198.88 959.69,-19.84 1938.53,-2 2900.33,-2 31.4,7.56 10.8,-7.37 23.9,22.04 20.8,1.07 9.8,-8.1 16.6,16.3 l 1.1,900.39 c 6.1,167.19 83.6,343.75 213.3,436.52 l 17.7,11.86 c 27.9,21.88 19.6,27.68 58.7,51.5 216.8,132.05 304.5,112.64 618.7,112.64 h 4840 c 317.1,0 490.4,13.68 703.4,-199.55 217.2,-217.46 186.1,-441.79 186.1,-733.36 0,-55.91 -9.6,-540.41 7.3,-594.12 13.5,-42.92 526.7,-22.78 593.2,-22.78 610,0 1220,0 1830,0 198.8,0 410.2,-6.28 600.4,8.2 77.2,5.88 69,14.9 129.5,24.36 39.2,6.14 25,-0.54 54.3,12.66 19,8.6 -4.1,2.4 27.8,13.19 54.4,18.37 32.9,-7.6 68.6,35.56 38.1,45.91 73.1,47.5 138.1,104.11 80,69.74 161.8,151.47 199.2,252.34 51.9,139.57 90.5,177.69 92.3,366.48 8.6,904.59 0.2,1841.8 0.2,2750 v 1830 c 0,223.3 -4.1,313.9 239.6,366.5 58.5,-16.3 82,2.4 156.3,-80.2 l 40.3,-59.7 c 1.4,-5 2.5,-13.4 3.4,-24.6 z M 12133.4,9183.68 c 2.7,52.66 12.3,37.83 16.6,64.84 28.1,78.34 112,115.17 189.4,116.53 l 770.6,0.06 c 26.2,0.05 54.6,1.15 80.4,0.53 37,-0.9 37.6,1.41 59.5,-16.58 20.8,-36.94 24.3,-1026.81 5,-1115.66 -26.8,-40.93 -500.5,-22.46 -574.9,-22.46 l -450.2,-0.18 c -64.7,-0.57 -80.6,-5.41 -122.5,29.24 -13.2,155.52 -0.8,621.45 -2.6,840.25 -0.4,56.93 -12.1,81.41 28.7,103.43 z m 3082.3,170.7 c 56,15.4 1107.7,24.61 1135.5,-2.83 26.5,-26.11 12.5,-497.89 12.5,-541.55 0,-181.77 8.6,-385.23 -1.2,-564.32 -22.4,-49.47 -180.3,-33.36 -252.5,-33.36 -133.6,0 -841.5,-7.5 -872.2,6.48 -57,25.9 -29.9,199.42 -29.9,261.2 0,177.89 -12.4,781.71 7.8,874.38 z m -1555.3,-8 c 86.6,36.68 451.2,16.94 569.6,16.94 119.6,0 489.9,23.35 575,-17.15 11.7,-107.91 13.8,-1073.91 -6.7,-1103.96 -31.4,-32.42 -63.9,-23.53 -118.2,-23.12 l -890.2,0.02 c -75.8,-0.56 -72,-7.77 -126.9,22.77 l -2.6,1104.5"
       style="fill:#010001;fill-opacity:1;fill-rule:evenodd;stroke:none"
       transform="matrix(0.13333333,0,0,-0.13333333,0,4002.6667)" />
    <path
       id="path30"
       d="m 18992,17607.5 c 20,-2 12,2.5 27.3,-7.1 l 5,-611.3 c -2.4,-47.4 2.5,-36.1 -24.3,-62.2 -37.1,-27.4 -4800.1,-10.8 -5520,-10.8 -607.6,0 -1224.7,9.5 -1830.1,0.5 -721.4,-13.2 -658.2,-39.1 -657.9,163.4 1.1,642.5 -66.7,539.1 258,539.1 z m 453.1,-757.5 c 8.6,15.7 15.1,-0.8 17.8,69.2 l -3.7,739.3 -63.7,146.7 c -35.6,52.6 -90.1,157.3 -186.7,187.8 -13.6,4.2 -18.8,3.6 -30.4,8.6 -1.9,0.8 -4.3,2.2 -6,3.1 l -17.5,11.3 c -2.1,1.1 -4.5,2.6 -6.8,3.7 l -58.6,14.5 c -41.9,9.7 -27.1,12 -59.6,18 -53.7,9.9 -883.2,2.9 -979.9,2.9 -502.7,0 -6964.5,10.6 -7051,-1.3 l -158,-51.9 c -10.8,-5.4 -14.1,-4.8 -28.5,-12.1 l -51,-29.2 c -59.7,-32.8 -117.6,-103.9 -157.3,-164.2 -99.8,-151.8 -51.5,-525.3 -51.6,-766.4 -0.1,-215.4 -8.2,-130.7 46.8,-283.6 26.1,-72.5 51.8,-101.3 104.7,-140.7 210.9,-156.9 265.6,-132.2 605.9,-132.2 h 5890 c 574.6,0 1239.9,-11.3 1810.7,-0.1 54,1.1 78.7,16.7 125.7,29.8 118,33.2 201,133.4 263,228 49.8,75.8 29.1,88.5 45.7,118.8"
       style="fill:#010001;fill-opacity:1;fill-rule:evenodd;stroke:none"
       transform="matrix(0.13333333,0,0,-0.13333333,0,4002.6667)" />
    <path
       id="path31"
       d="m 13251.9,13040 c 0,89.6 35.6,130.9 128.1,130.9 h 3240 c 103.1,0 148.1,-25.2 148.1,-130.9 v -2090 c 0,-95.5 -44.7,-134.7 -138.1,-134.7 h -3230 c -74.8,0 -148.1,0 -148.1,134.7 z m 3931,-2190 c 24.6,139.6 8.5,318.3 8.5,470 0,279.2 17.7,1775.4 -17.3,1883.4 l -72.7,167.1 c -19.1,33.2 -82.9,93.2 -111.7,119 -97.5,87.3 -221.2,113.2 -359.7,113.1 l -2360,-0.1 c -314.4,0 -637,7.2 -950.4,-0.2 -142.3,-3.3 -264,-77.7 -354.7,-177 l -26.7,-36.2 c -54.4,-86 -88.3,-111.1 -105.9,-240.4 -13.8,-101.4 -3.7,-1749.6 -3.7,-1898.7 0,-196.4 -36.4,-487.4 111.2,-650.3 l 34.3,-35.4 c 51,-55 89.4,-112.6 210.5,-149.7 48.7,-15 151.9,-28.4 205.3,-28.6 l 2360.1,0.1 c 307.6,0 646.9,-13.6 950.6,1.2 170.9,8.3 282,88.8 378.9,214.1 3.3,4.2 24.2,34.3 25.1,35.7 51.1,81.8 59.3,105 78.3,212.9"
       style="fill:#010001;fill-opacity:1;fill-rule:evenodd;stroke:none"
       transform="matrix(0.13333333,0,0,-0.13333333,0,4002.6667)" />
    <path
       id="path32"
       d="m 19024.9,12990 c -0.2,202.8 88.8,373.7 246.7,488.4 82.4,59.9 224.3,96.8 328.4,96.8 252.8,0 445.1,-118 543.8,-343.1 38.7,-88.1 12.8,-68.6 27.2,-115.3 12.3,-40.3 23.4,5.7 23.7,-116.8 0.1,-57 2.3,-93.5 -13.3,-140.6 l -38.1,-112.8 c -22.6,-72 -63,-122.6 -116.8,-173 -125.2,-117.2 -240.9,-171.6 -416.5,-171.6 -175.7,0 -294,60.1 -416.6,171.6 -109.7,99.7 -168.4,265.1 -168.5,416.4 z m 1597.2,-170 c 38.8,131.4 10.2,363.2 -28.8,472.6 l -78.8,180.1 c -14.3,28.6 -30.2,60.7 -46.8,84.8 -20.2,29.4 -27.5,36.2 -49.8,69.1 -64.6,95.3 -244.8,243.4 -354.2,288.1 -136.8,56.1 -131.2,63.3 -286.6,93.6 -143.5,27.9 -368.7,5.5 -480.5,-34.3 -64,-22.7 -115.7,-53.7 -176.5,-81.7 -54.3,-24.9 -101.6,-65.1 -147.8,-104.3 -12.2,-10.3 -1.8,-2.8 -22.5,-15.4 -45.8,-27.8 -47.3,-30 -116.1,-106.2 -21.6,-24 -40.8,-44.7 -59.6,-70.4 -86.8,-118.9 -161,-281.9 -185.5,-443.3 -10.8,-70.8 -7.6,-172.8 -5.7,-252.8 3.3,-142.7 28.7,-202.3 74.6,-315.2 12.9,-31.8 27.1,-58.1 44,-83.3 21.3,-31.8 35.3,-52.9 49.2,-83.6 l 32.7,-55.5 c 31.6,-39.6 27.4,-18.9 61.9,-69.1 l 16.5,-22.9 c 33.7,-39.7 231.5,-175.2 287.7,-209.5 35.5,-21.7 104.3,-35.2 143.4,-56.6 75.5,-41.4 412.9,-60 506.2,-23.7 48.2,18.8 104.6,2.1 255.7,76.8 l 130.7,68.8 c 1.9,1.2 4.5,2.8 6.5,3.9 l 37.2,28.8 c 119.9,145.4 234.1,194.7 340.7,460.5 29.4,73.2 30.8,128.3 52.2,200.7"
       style="fill:#010001;fill-opacity:1;fill-rule:evenodd;stroke:none"
       transform="matrix(0.13333333,0,0,-0.13333333,0,4002.6667)" />
    <path
       id="path33"
       d="m 10722.5,12499.6 c -24.5,-44.6 -20.6,-32.8 -74.9,-57.5 -204.7,-93.1 -433.3,-52 -612.6,82.7 -85.35,64 -156.33,163.5 -188.58,262.6 -23.73,73 -73.72,328.6 9.29,394.9 4.8,62.5 94.61,186 135.23,226.4 116.16,115.4 215.26,166.1 378.96,171.1 53.1,1.7 128.1,1.3 180.3,-4.6 33.1,-3.7 19.2,-2.4 35.8,-10.4 115.7,-55.6 210.5,-103.9 290.5,-208 101.1,-131.4 126.2,-249.4 121.8,-417 -3.8,-145.3 -47.3,-175.8 -96.4,-271.3 -25.1,-48.7 -133,-163.9 -179.4,-168.9 z M 9385.75,12990 c 0.38,-226.6 41.23,-254.3 57.75,-322.1 23.28,-95.6 11.38,-25.2 33.93,-97.2 30.17,-96.4 141.44,-232.4 206.89,-306.9 61.45,-69.9 213.29,-174.2 294.14,-212.4 139.74,-66.1 280.04,-88.7 431.54,-88.7 191.7,-0.1 380.4,46 542.6,146.3 23.9,14.8 15.4,12.7 37.4,30.3 l 108.7,83.3 c 10.8,8.3 38.1,29.9 38.1,30 22.3,24.5 4.6,19 57,64.4 l 108.1,148.7 c 7.9,15.1 11.4,19.3 22.1,37.8 1.1,2 2.6,4.5 3.7,6.5 l 54.4,135.6 c 8.1,24.9 13.2,29.4 17.5,42.2 l 36.1,161.4 c 8.2,212.3 10.4,211.2 -32.9,400.9 l -31.3,99.1 c -9.3,28.9 -8.1,17.6 -21.3,48.6 -98.8,232.5 -208.3,344.5 -416.5,476.5 -37.2,23.6 -138.2,73.3 -183.1,81.3 -77.7,13.7 -45.3,58.3 -330.6,59.2 -130.7,0.5 -222.4,-1.7 -333.8,-49.8 -35.1,-15.2 -58.8,-12.9 -99.08,-32.7 l -232.19,-146.5 c -31.08,-24.7 -105.61,-95.4 -124.07,-128.7 -34.22,-61.6 -179.06,-188 -217.85,-433.4 -20.58,-130.1 -27.58,-45.4 -27.26,-233.7"
       style="fill:#010001;fill-opacity:1;fill-rule:evenodd;stroke:none"
       transform="matrix(0.13333333,0,0,-0.13333333,0,4002.6667)" />
    <path
       id="path34"
       d="m 20439.9,17610.9 -8.4,-1.3 c 35.4,33.4 126.9,16.9 178.5,16.9 126.5,0 464.1,18.5 523.2,-22.2 4.2,-81.3 19.4,-647 -19.1,-677.8 -39.5,-31.8 -649.7,-17.5 -686.3,-9.2 -22.7,95 -11.2,250.2 -11.2,352.7 l 2.4,309.7 c 12.7,40.3 -14.6,14.7 20.9,31.2 z m 1116.7,-720.9 c 15.6,50.6 19.9,705 4.4,775.1 -14.7,66.5 -49.1,148.6 -97.8,198.7 -103.4,106.3 -97.4,141.6 -304.8,186.9 -23,5.1 -721.8,21 -779.9,-8.8 -67.2,-34.6 -126.2,2.6 -215.1,-85 l -141.4,-187.3 c -60.1,-89.1 -34,-386.1 -34,-529.6 0,-348.7 -47.2,-411.6 154.8,-637.9 9,-10.2 4.1,-4.8 13.7,-17.5 22.2,-29 5.8,-17.7 41.2,-33.8 69.1,-31.4 116,-61.8 204.6,-73.6 66,-8.9 744.8,-5.8 778.7,5.3 13.4,4.4 7.2,5.1 34.6,14.2 78.1,26 19.2,-2.6 97.2,50.1 146.5,99.1 176.2,123.4 243.8,343.2"
       style="fill:#010001;fill-opacity:1;fill-rule:evenodd;stroke:none"
       transform="matrix(0.13333333,0,0,-0.13333333,0,4002.6667)" />
    <path
       id="path35"
       d="m 9589.95,17610.3 -8.21,1.5 c 27.42,-19.6 12.52,8.7 23.6,-41.3 0.39,-1.8 1.23,-36.3 1.2,-40.2 -1.09,-144.6 11.18,-521.2 -14.03,-613.4 -30.76,-8 -654.62,-26.9 -692.34,13.1 -31.05,33 -18.82,641.3 -11.03,690.7 104.58,13.6 395.33,6.9 530.86,6.9 51.14,0 134.13,15 169.95,-17.3 z m 110,-1106.9 c 151.41,65 223.76,115.9 294.86,262.3 59.39,122.1 37.19,383.8 37.19,534.3 0,295.7 34.6,373.5 -87.22,563.8 -91.5,143 -251.18,165 -294.83,188 -169.93,2.3 -339.95,1.5 -509.95,1.5 -187.53,0 -302.62,12.9 -440.3,-62.1 -101.23,-55.1 -199.52,-155.8 -223.24,-275.8 -28.82,-145.8 -15.6,-327 -15.6,-485.4 0,-211.9 -33.83,-452.4 141.36,-608.1 184.57,-164 357.12,-137 607.78,-137 l 377.35,1.7 c 40.08,5.7 56.12,14.8 112.6,16.8"
       style="fill:#010001;fill-opacity:1;fill-rule:evenodd;stroke:none"
       transform="matrix(0.13333333,0,0,-0.13333333,0,4002.6667)" />
    <path
       id="path36"
       d="m 14048.2,12393.3 c -231.1,-58.3 -371.7,-282.8 -321.2,-477.1 6.1,-23.3 15.1,-44.8 25.1,-74.2 97.7,-285.5 610.5,-408 772.9,42.6 38.4,106.6 16.9,231 -50.2,330.5 -93.3,138.2 -255.7,221.4 -426.6,178.2"
       style="fill:#010001;fill-opacity:1;fill-rule:evenodd;stroke:none"
       transform="matrix(0.13333333,0,0,-0.13333333,0,4002.6667)" />
    <path
       id="path37"
       d="m 15807.9,12393.6 c -125,-39.2 -149.5,-54.4 -244.6,-156.6 -140.3,-150.7 -116.2,-438 106.3,-587.5 132.4,-88.9 330.6,-76.6 439,2.5 102.3,74.7 140.1,122.5 167.2,234.5 32,131.8 28.2,123.4 -12.3,263.4 -7.8,26.9 -19.5,43.3 -34.8,67.5 -87.6,138.9 -275.2,221.8 -420.8,176.2"
       style="fill:#010001;fill-opacity:1;fill-rule:evenodd;stroke:none"
       transform="matrix(0.13333333,0,0,-0.13333333,0,4002.6667)" />
    <path
       id="path38"
       d="m 17182.9,10850 c -19,-107.9 -27.2,-131.1 -78.3,-212.9 -0.9,-1.4 -21.8,-31.5 -25.1,-35.7 -96.9,-125.3 -208,-205.8 -378.9,-214.1 -303.7,-14.8 -643,-1.2 -950.6,-1.2 l -2360.1,-0.1 c -53.4,0.2 -156.6,13.6 -205.3,28.6 -121.1,37.1 -159.5,94.7 -210.5,149.7 l -34.3,35.4 c -147.6,162.9 -111.2,453.9 -111.2,650.3 0,149.1 -10.1,1797.3 3.7,1898.7 17.6,129.3 51.5,154.4 105.9,240.4 l 26.7,36.2 c 90.7,99.3 212.4,173.7 354.7,177 313.4,7.4 636,0.2 950.4,0.2 l 2360,0.1 c 138.5,0.1 262.2,-25.8 359.7,-113.1 28.8,-25.8 92.6,-85.8 111.7,-119 l 72.7,-167.1 c 35,-108 17.3,-1604.2 17.3,-1883.4 0,-151.7 16.1,-330.4 -8.5,-470 z m 498,2030 c -15.6,111.8 10.5,346.6 28.8,449.4 6.5,36.6 15.1,46.5 22.9,96.7 24.6,159.5 93.2,300 161.1,438.7 l 31.9,58.7 c 107.7,179.5 126.1,200.9 263.3,377.7 l 123.7,116.4 c 92.3,65.3 169.3,151.3 268.5,210.3 l 152.6,87.3 c 23.7,11.8 21,10.8 39.2,20.8 7.8,4.3 10.4,5.4 19.7,10.5 l 376.4,133 c 46.5,20.1 43.4,10.7 101.6,15.6 82.2,7.1 77.9,27.8 219.4,28.9 104.6,0.8 253.7,12.6 355.8,-3.4 l 426.5,-109.6 c 164.1,-66.9 215.1,-98.4 359.3,-180.1 30.7,-17.3 49.3,-25.9 74.8,-44.8 l 41.3,-29.6 c 1.8,-1.2 4.2,-2.9 6,-4.1 l 143,-106.1 240.1,-279.4 c 57.4,-69.5 95.9,-137.5 144.4,-215.2 l 121.4,-248.6 c 13.1,-34.9 13.8,-57.1 26.6,-97.2 l 44.2,-134.1 c 23.7,-57.2 64.1,-297.1 65.3,-361.4 3.7,-193.8 -18.3,-558.9 -100.1,-739.2 -3.7,-8.2 0.2,8.5 -8.8,-22.6 l -11.9,-49.4 c -32,-91.3 -190.8,-385.6 -271.8,-475.2 l -237.4,-253 c -38,-36.8 -79.1,-86.8 -124,-114.2 -74,-45.1 -136.9,-110.7 -215.7,-142.5 l -194,-97.2 c -2.1,-0.9 -4.6,-2.3 -6.8,-3.3 -25.7,-11 -17.6,-6.8 -47.4,-13.7 -66.6,-15.5 -103.6,-47.6 -177,-61.8 -73.3,-14.3 -135.7,-26.4 -199.5,-43.4 -176.7,-47.1 -480,-39.7 -670.7,-8 -102.7,17.1 -181.8,48.4 -276,80.1 -119.2,40.1 -225.6,89.3 -329.7,149.5 l -200,130.9 c -6.9,4.8 -11.5,8.4 -17.5,13.5 -23.5,19.9 -40.7,33.2 -66,51.7 l -66.3,64.6 c -10,7.7 -21,12 -36.2,23.8 -74.8,58.2 -141.2,144.1 -201.3,219.6 -71.8,90.2 -134.5,187.9 -192.2,296.6 -14.5,27.2 -25.7,55.9 -36.6,84.8 l -69,170.4 c -62.3,169.4 -77.4,332.4 -101.9,507.6 z m -875.8,1920 c 0,313.2 361.3,323.9 428.5,105.6 11.8,-38.6 6.3,-343.1 6.3,-395.6 0,-96 -4,-124.6 -49,-181.5 -56.6,-71.7 -167.2,-88.4 -263.2,-52.3 -65.9,24.8 -18.8,17.1 -56,55.5 -31.4,32.4 -29.6,5.3 -52,69.5 -26.1,74.4 -14.6,309.6 -14.6,398.8 z m -4025.1,0 c 0,98.8 13.7,132.7 62,187.4 30.3,34.3 103.7,80.3 157.2,77.9 20,-0.9 17.5,-1.3 32.2,-5.9 l 102.7,-46 c 61.5,-47.8 85.9,-120.2 85.9,-213.4 0,-149.3 24.9,-386.6 -56.6,-473.9 -36.1,-38.7 -115.8,-75.4 -163.3,-76.3 -82.4,-1.7 -154.7,53.5 -194.4,106.1 -44.6,59.3 -25.7,341.5 -25.7,444.1 z m 2663.4,-92.1 c 80.9,40.3 194.1,-8.8 247,-86.9 l 8.2,-11.8 c 30.9,-47.7 27.1,-130.9 18,-189.6 -2.8,-17.7 -2.2,-17.8 -8.6,-29.2 l -53.3,-55.2 c -119.4,-121.3 -94.4,-95 -247.6,-183 -210.3,-120.9 -472.9,-126.7 -705.5,-40.6 -152.2,56.4 -239.5,115.6 -352.1,238 -76.5,83.1 -75,195.7 -29.6,261 l 17.4,22.7 c 34,44.3 42,43.6 106.5,64.6 130.8,42.7 182.9,-13.4 256.9,-87.2 l 59.4,-50.9 c 56.8,-50.2 224.2,-76.8 312.2,-60.3 171.3,32 164.6,48.8 280.3,157.9 42.4,40 41.1,25.7 90.8,50.5 z m -6767.84,-858 107.26,177.4 c 50.32,81.3 78.2,111 137.06,182.5 l 319.17,311.4 c 181.51,139.9 326.93,212.9 544.99,294.8 146.75,55.2 185.87,42.7 216.36,55.4 l 24,13.1 c 70.3,28.2 404.2,37.3 495.7,35.7 86.5,-1.5 116.1,-16.4 182.8,-25.1 31,-4 63.4,-2 93.7,-9.2 24,-5.7 45.9,-14.2 87.2,-22.3 102.2,-20.1 327.7,-105.4 409,-151.5 130.3,-73.8 177.6,-97.4 289.4,-189.7 41.3,-34.1 78.3,-53.3 118.6,-91.3 l 10.3,-9.8 c 0.2,-0.2 15.5,-14.1 15.9,-14.5 110.9,-101.2 225.5,-248.9 309.1,-370.6 l 42,-67 c 86.9,-147.7 199.5,-439.1 229.5,-610.7 l 27.3,-398.5 c -1.9,-195.8 -59,-523.7 -138.9,-696 l -60.7,-152.4 -166.2,-250 c -31.6,-41.6 -53.9,-75.2 -93,-117.9 -158.7,-172.9 -236.7,-253.6 -450.3,-389.4 -91.8,-58.4 -208.5,-100.8 -287.7,-142.2 l -27.1,-13.2 c -139.4,-65.8 -306.8,-100.7 -459.3,-119.1 -204,-24.7 -366.2,-28.3 -578.9,13 -158.49,30.7 -470.66,125.6 -618.96,222.1 l -248.85,170.5 c -59.07,43.4 -263.6,247.8 -312.46,316.7 -30.23,42.6 -53,81.6 -84.35,126.6 -5.65,8.2 -16.05,22 -20.63,28.8 l -95.39,165.9 c -13.86,30.6 -12.48,51 -37.29,61.9 -56.03,8.9 -23.77,18.9 -39,-15.3 -0.14,-0.7 -6.82,-3010.94 4.46,-3260.37 8.49,-187.78 160.83,-453.09 285.49,-583.84 43.73,-45.86 58.14,-66.59 143.59,-66.6 213.91,-0.01 2529.59,12.22 2624.49,-5.49 20.8,1.07 9.8,-8.1 16.6,16.3 l 1.1,900.39 c 6.1,167.19 83.6,343.75 213.3,436.52 l 17.7,11.86 c 27.9,21.88 19.6,27.68 58.7,51.5 216.8,132.05 304.5,112.64 618.7,112.64 h 4840 c 317.1,0 490.4,13.68 703.4,-199.55 217.2,-217.46 186.1,-441.79 186.1,-733.36 0,-55.91 -9.6,-540.41 7.3,-594.12 13.5,-42.92 526.7,-22.78 593.2,-22.78 610,0 1220,0 1830,0 198.8,0 410.2,-6.28 600.4,8.2 77.2,5.88 69,14.9 129.5,24.36 39.2,6.14 25,-0.54 54.3,12.66 19,8.6 -4.1,2.4 27.8,13.19 54.4,18.37 32.9,-7.6 68.6,35.56 38.1,45.91 73.1,47.5 138.1,104.11 80,69.74 161.8,151.47 199.2,252.34 51.9,139.57 90.5,177.69 92.3,366.48 8.6,904.59 0.2,1841.8 0.2,2750 v 1830 c 0,223.3 -4.1,313.9 239.6,366.5 v 419.2 c -52.2,13.4 -60,6.3 -108,27.5 -29.4,13 -20,6.6 -44.5,25.7 -15.9,12.5 -21.7,19.7 -32.5,21.1 -102,20.9 -72,341.3 -72,470 0,137.3 14.3,392 -3,513.1 H 8617 c -1.67,-40.1 -11.41,-1481.5 -2.11,-1633.7 0.77,-12.4 0.57,-16.2 3.87,-28.1 6.85,-25 -1.6,-7.4 11.24,-24.2 35.46,50.2 -27.65,42.1 45.56,62.8"
       style="fill:#c6c4ca;fill-opacity:1;fill-rule:evenodd;stroke:none"
       transform="matrix(0.13333333,0,0,-0.13333333,0,4002.6667)" />
    <path
       id="path39"
       d="m 9647.32,20969.8 c 19.14,32.9 45.41,57.5 89.22,75.6 61.32,25.3 59.47,28.1 143.4,27.8 3090.16,-11.5 6197.96,-0.2 9290.06,-0.2 l 1030.7,-0.6 c 40,-3.9 95.6,-28.4 122.7,-48.9 52.1,-39.6 50.9,-78.7 72.1,-98.3 32.5,-30.7 30.9,-88.9 30.9,-134.6 0.3,-235.6 -12,-972.6 3.4,-1093.8 l 687.5,-0.4 c 12.6,112.3 3.6,1304.1 3.6,1523.6 0,356.9 14.4,195.4 -70.9,442.1 -5.7,30.8 -37.3,47.6 -68.1,67.9 l -172.8,54.8 c -74.3,18 -10568.9,5.3 -11349.1,5.3 -144.93,0 -267.66,12.9 -382.16,-49.9 l -85.97,-71.1 c -142.82,-180.1 -91.92,-358.7 -91.92,-629.1 l 0.05,-1336.8 c 58.76,-15.4 612.78,-13.5 690.18,-2.9 31.48,242.1 -17.1,916.4 5.24,1145 4.78,48.9 0.17,113.3 51.9,124.5"
       style="fill:#c6c4ca;fill-opacity:1;fill-rule:evenodd;stroke:none"
       transform="matrix(0.13333333,0,0,-0.13333333,0,4002.6667)" />
    <path
       id="path40"
       d="m 7713.72,10520 -1.18,-420 c 31.21,-20.1 90.42,-13.1 139.19,-48.5 50.9,-36.8 52.55,-40.7 77.88,-103.19 60.2,-148.57 -25.8,-771.93 40.62,-1046.11 l 41.46,-148.91 c 34.42,-104.09 143.13,-244.91 220.84,-320.75 123.36,-120.4 332.14,-195.06 517.14,-198.88 959.69,-19.84 1938.53,-2 2900.33,-2 31.4,7.56 10.8,-7.37 23.9,22.04 -94.9,17.71 -2410.58,5.48 -2624.49,5.49 -85.45,0.01 -99.86,20.74 -143.59,66.6 -124.66,130.75 -277,396.06 -285.49,583.84 -11.28,249.43 -4.6,3259.67 -4.46,3260.37 15.23,34.2 -17.03,24.2 39,15.3 -6.33,45.9 -22.24,69.5 -40.92,98.7 -29.99,46.8 -10.58,27.4 -28.49,70.8 -39.8,96.4 -14.66,73.7 -35.11,125.6 l -44.88,204 c -4.71,42.9 -4.53,69.9 -14.7,106 -46.3,164.6 22.69,527.6 44.71,688.7 11.7,85.5 69.75,189.5 106.21,268.4 15.84,34.2 26.17,66.6 33.87,102.4 -73.21,-20.7 -10.1,-12.6 -45.56,-62.8 -12.84,16.8 -4.39,-0.8 -11.24,24.2 -3.3,11.9 -3.1,15.7 -3.87,28.1 -9.3,152.2 0.44,1593.6 2.11,1633.7 h 13433 c 17.3,-121.1 3,-375.8 3,-513.1 0,-128.7 -30,-449.1 72,-470 l -46.6,107.8 c -18.8,75.6 10,733.8 -10.5,900.8 -113.8,17.4 -7041.8,3.9 -7057.9,3.9 -38.5,0 -6925.37,12 -7056.49,-5.4 -19.9,-185.3 -3.83,-462.1 -3.83,-657.1 v -3910 c 0,-108.2 11.7,-218.3 -33.61,-296.3 -18.21,-31.3 -54.02,-59.1 -84.98,-75.2 -16.21,-8.5 -40.38,-19.5 -55.46,-23.7 -31.47,-8.7 -36.63,1.1 -61.91,-14.8"
       style="fill:#a19dae;fill-opacity:1;fill-rule:evenodd;stroke:none"
       transform="matrix(0.13333333,0,0,-0.13333333,0,4002.6667)" />
    <path
       id="path41"
       d="m 21916.8,18225.5 c 7.6,-40.7 36.3,-80.8 50,-105.8 3.6,-6.6 24.9,-46.1 25.1,-46.5 102.4,-235.4 66.9,-652.9 66.9,-913.2 0,-401.5 0,-803.1 0,-1204.6 H 8614.92 l 0.12,608.2 c 59.78,-6.8 62.61,-41.7 213.01,-86.8 83.28,-24.9 607.21,-16.7 742.02,-12.7 68.32,2 96.57,-2 129.88,39.3 -56.48,-2 -72.52,-11.1 -112.6,-16.8 l -377.35,-1.7 c -250.66,0 -423.21,-27 -607.78,137 -175.19,155.7 -141.36,396.2 -141.36,608.1 0,158.4 -13.22,339.6 15.6,485.4 23.72,120 122.01,220.7 223.24,275.8 137.68,75 252.77,62.1 440.3,62.1 170,0 340.02,0.8 509.95,-1.5 -48.32,36.4 -463.78,18.1 -519.95,18.1 -189.66,0 -216.02,20.5 -366.48,-27 -51.42,-16.3 -62.52,-31.9 -112.11,-39.9 1.45,55.6 -3.32,55.6 16.49,97.4 19.71,41.5 15.53,84.8 56.6,145.1 l 124.51,195.4 c 159.01,184.8 162.57,133.4 480.99,133.4 1000.3,0 11979.1,-11.8 12043.5,2.2 -37.6,28.7 -130.3,19.3 -253.5,19.3 H 9340 c -171.51,0 -337.46,-9.9 -499.99,-9.7 -97.28,0.2 -164.62,10.7 -231.41,-22 -18.36,-9.1 -25.19,-10.8 -50.54,-14.1 -11.26,-1.5 -16.29,-0.9 -28.46,-3.3 l -117.71,-38.6 c -158.53,-82.6 -144.54,-91.7 -213.73,-166.3 -1.3,-1.4 -3.39,-3.6 -4.74,-4.9 -1.36,-1.4 -3.49,-3.5 -4.9,-4.8 l -21.34,-17.5 c -48.89,-37.5 -72.41,-85.2 -106.76,-146.5 l -57.65,-134 c -38.47,-109.9 -50.06,-202.8 -50.05,-324.1 l 0.03,-1758.9 c 175.75,0 351.54,-0.4 527.29,0.1 99.3,0.2 143.21,-15.1 239.95,-14.7 86.65,0.4 173.36,0.1 260.01,0.1 h 12940 c 152.5,-0.1 155.8,-36 154.2,113.4 l -0.1,1290 c 0,164.5 9.4,359.5 -2.7,520.4 -6.4,86.3 -71.9,289.4 -132.6,349.4 -16.6,16.3 2,2.3 -22,15.7"
       style="fill:#4d495d;fill-opacity:1;fill-rule:evenodd;stroke:none"
       transform="matrix(0.13333333,0,0,-0.13333333,0,4002.6667)" />
    <path
       id="path42"
       d="m 11649.9,16916.6 c -11.1,58.8 -13.4,631.6 -2.5,683.4 155.9,18.3 3513.4,6.3 3662.6,6.3 920,0 1840,0 2760,0 294,0 634.4,-15.7 922,1.2 l -7742,11.6 c -324.7,0 -256.9,103.4 -258,-539.1 -0.3,-202.5 -63.5,-176.6 657.9,-163.4"
       style="fill:#f95d7c;fill-opacity:1;fill-rule:evenodd;stroke:none"
       transform="matrix(0.13333333,0,0,-0.13333333,0,4002.6667)" />
    <path
       id="path43"
       d="m 13284.4,13040 c 0,74.9 -3.3,114.2 115.6,114.2 h 3210 c 43.2,0 79.7,-0.5 102.3,-21.6 30.4,-28.5 23.3,-43.5 23.3,-92.6 v -2090 c 0,-60.9 11.2,-117 -125.6,-117 h -3200 c -128.2,0 -125.6,46.3 -125.6,107 z m -32.5,0 v -2090 c 0,-134.7 73.3,-134.7 148.1,-134.7 h 3230 c 93.4,0 138.1,39.2 138.1,134.7 v 2090 c 0,105.7 -45,130.9 -148.1,130.9 h -3240 c -92.5,0 -128.1,-41.3 -128.1,-130.9"
       style="fill:#8d3546;fill-opacity:1;fill-rule:evenodd;stroke:none"
       transform="matrix(0.13333333,0,0,-0.13333333,0,4002.6667)" />
    <path
       id="path44"
       d="m 17811.7,9291.03 c 7.2,-82.88 63.1,-7.92 62.4,-211.02 -0.7,-197.47 11.8,-697.13 -3.1,-828.74 h -1063.5 l -4.3,1072.61 776.8,0.01 c 41,0.05 90.8,2.37 130.8,-2.34 71.3,-8.41 47.8,-28.39 100.9,-30.52 z m 72.1,-104 c -1.7,29.71 -7.8,40.39 -22.9,63.47 -17.6,26.85 -20.1,33.06 -49.2,40.53 -7,14.76 -1.1,8.71 -15.7,24.13 -10.3,10.75 -6.4,6.97 -18.1,12.5 -45.1,7.08 -62.5,19.16 -107.3,21.95 -135.2,8.42 -846.7,3.35 -883.2,-7.7 -15,-28.89 -23.5,-1014.92 -7.5,-1092.12 48.7,-25.9 1058.3,-23.34 1104.4,-4.22 18.2,64.79 9.9,838.27 -0.5,941.46"
       style="fill:#363441;fill-opacity:1;fill-rule:evenodd;stroke:none"
       transform="matrix(0.13333333,0,0,-0.13333333,0,4002.6667)" />
    <path
       id="path45"
       d="m 15251.2,9324.55 1071.7,-1.21 -2.8,-1072.77 -1070.8,3.77 z M 16280,8236.16 c 51.2,0 61.1,0.26 61.1,53.84 0.1,191.03 12,912.3 -6.3,1045.84 -31.6,15.28 -18.3,13.1 -54.8,13.1 h -990 c -59.1,0 -61.5,-16.11 -61.5,-68.94 -0.1,-170.52 -14.5,-926.25 7.3,-1033.46 67.4,-25.11 902.7,-10.38 1044.2,-10.38"
       style="fill:#484457;fill-opacity:1;fill-rule:evenodd;stroke:none"
       transform="matrix(0.13333333,0,0,-0.13333333,0,4002.6667)" />
    <path
       id="path46"
       d="m 12207.7,9291.98 c 76.8,7.07 -20.7,33.44 222.3,33.08 l 785.6,-0.02 1.9,-1075.23 c -136.7,0 -1020.5,-15.17 -1068.4,9.23 -4.5,39.78 -14.4,895.02 8.9,944.46 0.3,0.75 22.5,38.34 24.7,41.88 23.7,37.54 15.7,-0.33 25,46.6 z m 0,0 -57.7,-43.46 c -4.3,-27.01 -13.9,-12.18 -16.6,-64.84 -8.7,-113.33 -18.3,-869.59 1.3,-939.05 47.4,-21.24 692.2,-10.2 835.3,-10.2 351.6,0 274.8,-99.5 274.8,555.57 0,664.71 65.6,561.19 -264.8,561.19 l -550,0.06 c -46.2,0.12 -88.6,2.71 -132.8,-8.5 -47.7,-12.1 -68.7,-20.72 -89.5,-50.77"
       style="fill:#454253;fill-opacity:1;fill-rule:evenodd;stroke:none"
       transform="matrix(0.13333333,0,0,-0.13333333,0,4002.6667)" />
    <path
       id="path47"
       d="m 13698.6,9321.82 1068.3,1.19 2.1,-1066.58 -1067,-3.94 z m 1081.5,-1071.87 c 20.3,45.04 17.4,1030.83 -2.3,1088.08 -61.9,19.4 -1039.8,16.93 -1087.8,-2.65 -21.3,-67.43 -11.1,-1071.72 1.1,-1084.9 18.1,-19.66 1045.9,-23.18 1089,-0.53"
       style="fill:#393644;fill-opacity:1;fill-rule:evenodd;stroke:none"
       transform="matrix(0.13333333,0,0,-0.13333333,0,4002.6667)" />
    <path
       id="path48"
       d="m 17883.8,9187.03 c 10.4,-103.19 18.7,-876.67 0.5,-941.46 -46.1,-19.12 -1055.7,-21.68 -1104.4,4.22 -16,77.2 -7.5,1063.23 7.5,1092.12 36.5,11.05 748,16.12 883.2,7.7 44.8,-2.79 62.2,-14.87 107.3,-21.95 -33.9,38.01 -43.7,36.55 -107.3,37 l -390.6,0.01 c -68.3,0 -480.2,18.1 -509.1,-16.2 -19.8,-33.53 -24.1,-1026.01 -5.4,-1114.52 66.6,-41.37 469.6,-22.23 574.5,-22.23 100.6,0 512.8,-19.89 571.6,25.49 13.2,107.39 3.1,573.77 3.1,742.79 0,54.26 22.8,193.54 -30.9,207.03"
       style="fill:#131217;fill-opacity:1;fill-rule:evenodd;stroke:none"
       transform="matrix(0.13333333,0,0,-0.13333333,0,4002.6667)" />
    <path
       id="path49"
       d="m 12150,9248.52 57.7,43.46 c 20.8,30.05 41.8,38.67 89.5,50.77 44.2,11.21 86.6,8.62 132.8,8.5 l 550,-0.06 c 330.4,0 264.8,103.52 264.8,-561.19 0,-655.07 76.8,-555.57 -274.8,-555.57 -143.1,0 -787.9,-11.04 -835.3,10.2 -19.6,69.46 -10,825.72 -1.3,939.05 -40.8,-22.02 -29.1,-46.5 -28.7,-103.43 1.8,-218.8 -10.6,-684.73 2.6,-840.25 41.9,-34.65 57.8,-29.81 122.5,-29.24 l 450.2,0.18 c 74.4,0 548.1,-18.47 574.9,22.46 19.3,88.85 15.8,1078.72 -5,1115.66 -21.9,17.99 -22.5,15.68 -59.5,16.58 -25.8,0.62 -54.2,-0.48 -80.4,-0.53 l -770.6,-0.06 c -77.4,-1.36 -161.3,-38.19 -189.4,-116.53"
       style="fill:#18171c;fill-opacity:1;fill-rule:evenodd;stroke:none"
       transform="matrix(0.13333333,0,0,-0.13333333,0,4002.6667)" />
    <path
       id="path50"
       d="m 12620.1,19756.2 c 56.8,6.9 48.1,17.8 99.7,20.3 l 530.2,-0.2 c 33.1,0 174.5,11.9 196.3,-10.9 21.8,-28.9 18,-664.8 1.4,-724.6 l -856.8,-0.1 c -24.2,78.7 -9.9,253.5 -9.9,349.3 0,141.4 -11.5,230.9 21.9,349.9 -53.5,-16.1 -43.3,-58.1 -42.9,-159.9 0.4,-97.8 -12.9,-521.5 12.9,-550 24,-26.6 802.3,-18.5 887.1,-12.1 46.5,62 25.6,444.1 25.6,582.1 0,262 60.3,197.7 -665.6,198.2 -36.3,0 -74.4,1 -110.5,0 -8.3,-0.3 -43.1,-2.5 -49.5,-4.5 -40,-12.8 -30.8,-18.9 -39.9,-37.5"
       style="fill:#462b31;fill-opacity:1;fill-rule:evenodd;stroke:none"
       transform="matrix(0.13333333,0,0,-0.13333333,0,4002.6667)" />
    <path
       id="path51"
       d="m 16101.4,19048.4 c -93.7,-15 -287.1,-4 -391.4,-4 -534.5,0 -468.7,-34.6 -467.9,125.6 0.6,125.1 -9,524 5.4,592.8 54.2,15.8 352.9,6.3 432.5,6.3 432.6,0 431.9,34.6 430.1,-98.7 -0.5,-30.2 -0.4,-60.2 -0.4,-90.4 0,-102.8 8.7,-483.2 -8.3,-531.6 z M 15213,19710 c 0,-177.9 -10.5,-525.9 9.4,-684.5 127.2,-12 764.8,-10.5 899,0.6 18.4,140.2 12.9,599.3 3.5,757.7 -167.2,18.8 -637.1,7.2 -834.9,7 -74.4,0 -77,-9.7 -77,-80.8"
       style="fill:#764951;fill-opacity:1;fill-rule:evenodd;stroke:none"
       transform="matrix(0.13333333,0,0,-0.13333333,0,4002.6667)" />
    <path
       id="path52"
       d="m 20431.5,17609.6 670.1,-3.9 -1.3,-657.1 c -66,-10.5 -603.9,-11.1 -663.9,1.5 l 3.5,660.8 c -35.5,-16.5 -8.2,9.1 -20.9,-31.2 l -2.4,-309.7 c 0,-102.5 -11.5,-257.7 11.2,-352.7 36.6,-8.3 646.8,-22.6 686.3,9.2 38.5,30.8 23.3,596.5 19.1,677.8 -59.1,40.7 -396.7,22.2 -523.2,22.2 -51.6,0 -143.1,16.5 -178.5,-16.9"
       style="fill:#863343;fill-opacity:1;fill-rule:evenodd;stroke:none"
       transform="matrix(0.13333333,0,0,-0.13333333,0,4002.6667)" />
    <path
       id="path53"
       d="m 17376.9,19754.5 41.7,-54.8 c 15.7,-29.2 13.1,-40.9 13.4,-79.3 l -3.2,-563.4 h -856.6 l 2.1,698 z m 0,0 c -28.4,27.7 -40.9,26.6 -86.3,27.3 -33.1,0.5 -67.3,-0.4 -100.6,-0.4 -116.8,-0.1 -572.4,8.5 -624.4,-6.9 -17.5,-53.2 -16.7,-696.3 2,-737.1 41.2,-11.6 811.4,-12.6 866.4,-1.6 13,37.2 27.8,624.5 -4.5,684.4 -13.8,25.7 -19.2,35.6 -52.6,34.3"
       style="fill:#b4445a;fill-opacity:1;fill-rule:evenodd;stroke:none"
       transform="matrix(0.13333333,0,0,-0.13333333,0,4002.6667)" />
    <path
       id="path54"
       d="m 13928.3,19747.3 c 73.8,11.2 797.9,11 831.7,-2.8 l 2.7,-676 c -42.1,-16.7 -754.9,-15.5 -830.8,-3 z m -15.3,-695.8 c 131,-24.2 647.6,-9.6 817.6,-9.3 48.9,0 50.8,8.1 50.8,57.8 0,147 8,543.8 -6.5,663.7 -56.9,23.9 -691.1,9.6 -804.9,9.6 -88,0 -64.5,-45.4 -64.1,-133.3 0.7,-120.5 -8.9,-524.9 7.1,-588.5"
       style="fill:#d04e67;fill-opacity:1;fill-rule:evenodd;stroke:none"
       transform="matrix(0.13333333,0,0,-0.13333333,0,4002.6667)" />
    <path
       id="path55"
       d="m 9581.74,17611.8 c 10.54,-96.4 17.8,-616.2 -7.63,-676.5 -98.91,-9.1 -222.56,-2.8 -324.11,-2.8 -364.68,0 -333.28,-51.7 -333.18,167.5 0.06,123.8 -6.91,422.6 3.96,511.3 l 669.17,-1 c -35.82,32.3 -118.81,17.3 -169.95,17.3 -135.53,0 -426.28,6.7 -530.86,-6.9 -7.79,-49.4 -20.02,-657.7 11.03,-690.7 37.72,-40 661.58,-21.1 692.34,-13.1 25.21,92.2 12.94,468.8 14.03,613.4 0.03,3.9 -0.81,38.4 -1.2,40.2 -11.08,50 3.82,21.7 -23.6,41.3"
       style="fill:#732b39;fill-opacity:1;fill-rule:evenodd;stroke:none"
       transform="matrix(0.13333333,0,0,-0.13333333,0,4002.6667)" />
    <path
       id="path56"
       d="m 17376.9,19754.5 c 33.4,1.3 38.8,-8.6 52.6,-34.3 32.3,-59.9 17.5,-647.2 4.5,-684.4 -55,-11 -825.2,-10 -866.4,1.6 -18.7,40.8 -19.5,683.9 -2,737.1 52,15.4 507.6,6.8 624.4,6.9 33.3,0 67.5,0.9 100.6,0.4 45.4,-0.7 57.9,0.4 86.3,-27.3 z m 71.3,-733.2 c 19,54.6 15.8,517.6 12.1,629 -2.5,76.6 -28.4,113.7 -82.7,136.4 -38.1,16 -744.2,16 -820.5,5.1 -43.2,-57.5 -23.9,-315.5 -23.9,-401.8 0,-73.3 0.2,-146.7 0,-220 -0.1,-72.7 -20,-150 56.2,-155.6 95.2,-7.1 808.1,-6.8 858.8,6.9"
       style="fill:#39151c;fill-opacity:1;fill-rule:evenodd;stroke:none"
       transform="matrix(0.13333333,0,0,-0.13333333,0,4002.6667)" />
    <path
       id="path57"
       d="m 13913,19051.5 c -16,63.6 -6.4,468 -7.1,588.5 -0.4,87.9 -23.9,133.3 64.1,133.3 113.8,0 748,14.3 804.9,-9.6 14.5,-119.9 6.5,-516.7 6.5,-663.7 0,-49.7 -1.9,-57.8 -50.8,-57.8 -170,-0.3 -686.6,-14.9 -817.6,9.3 z m -22.9,658.5 v -610 c 0,-80.4 6.4,-79.3 79.9,-79.3 h 761.3 c 68.5,0 72.5,10.3 72.5,79.3 v 610 c 0,73 0.2,80.4 -73.8,80.4 h -760 c -78.3,0 -79.9,3.3 -79.9,-80.4"
       style="fill:#7a2d3b;fill-opacity:1;fill-rule:evenodd;stroke:none"
       transform="matrix(0.13333333,0,0,-0.13333333,0,4002.6667)" />
    <path
       id="path58"
       d="m 10722.5,12499.6 c -48.2,-13.6 -212.4,-105.4 -360.9,-86.4 -140.7,18 -186.5,50.3 -278.8,108.2 -16,10 -14.6,6.2 -32.2,18.6 -63.79,44.6 -154.49,161.6 -185.31,252.9 -72.15,213.8 -9.95,289.1 -9.58,389.4 -83.01,-66.3 -33.02,-321.9 -9.29,-394.9 32.25,-99.1 103.23,-198.6 188.58,-262.6 179.3,-134.7 407.9,-175.8 612.6,-82.7 54.3,24.7 50.4,12.9 74.9,57.5"
       style="fill:#83515a;fill-opacity:1;fill-rule:evenodd;stroke:none"
       transform="matrix(0.13333333,0,0,-0.13333333,0,4002.6667)" />
  </g>
</svg>
